<svg width="108" height="108" viewBox="0 0 108 108" fill="none" xmlns="http://www.w3.org/2000/svg">
<rect width="108" height="108" rx="26" fill="#009051"/>
<path d="M53.5 53.5V21.1667C53.5 20.0947 53.9258 19.0667 54.6838 18.3088C55.4418 17.5508 56.4698 17.125 57.5417 17.125H82.9921C83.8177 17.1251 84.6235 17.378 85.3011 17.8498C85.9787 18.3216 86.4955 18.9895 86.7821 19.7639C87.0687 20.5382 87.1112 21.3817 86.904 22.1809C86.6968 22.9801 86.2498 23.6967 85.6232 24.2343L66.6435 40.502M53.5 89.875L23.5351 59.9101C22.0191 58.3945 21.1671 56.3388 21.1667 54.1952V30.9273C21.1707 30.1298 21.41 29.3512 21.8548 28.6892C22.2996 28.0272 22.9299 27.5112 23.6667 27.206C24.4036 26.9008 25.2141 26.82 25.9967 26.9737C26.7793 27.1274 27.4991 27.5087 28.0658 28.0698L85.8333 85.8697M54.3649 18.6649L88.3715 79.1525C88.8042 79.9229 88.9725 80.814 88.8506 81.6892C88.7287 82.5644 88.3233 83.3755 87.6966 83.9984L82.9759 88.6989C82.2178 89.4529 81.1917 89.8758 80.1225 89.875H30.6686C29.7505 89.8754 28.8596 89.5633 28.1426 88.9899L18.1354 80.9833C17.4795 80.4589 17.0033 79.7431 16.7729 78.9355C16.5425 78.1279 16.5694 77.2686 16.8498 76.477C17.1303 75.6854 17.6504 75.0008 18.3378 74.5184C19.0253 74.036 19.8459 73.7797 20.6857 73.7851L37.5193 73.8942" stroke="white" stroke-width="6" stroke-linecap="round" stroke-linejoin="round"/>
</svg>
